<svg width="158" height="32" viewBox="0 0 158 32" fill="none" xmlns="http://www.w3.org/2000/svg">
<path fill-rule="evenodd" clip-rule="evenodd" d="M25.6018 0.228781C25.886 0.443157 26.0531 0.778505 26.0531 1.1345V6.7819C26.0535 6.79901 26.0535 6.81608 26.0531 6.83309L26.0531 22.392C26.0529 23.378 25.7315 24.3371 25.1376 25.1243C24.5437 25.9114 23.7096 26.4837 22.7615 26.7545L20.7725 27.3226C20.2849 27.4686 19.7733 27.5168 19.267 27.4645C18.7576 27.4118 18.2638 27.2583 17.8143 27.013C17.3647 26.7676 16.9685 26.4353 16.6486 26.0354C16.3287 25.6355 16.0916 25.176 15.951 24.6835C15.8103 24.1911 15.7691 23.6756 15.8296 23.1671C15.89 22.6586 16.0511 22.1671 16.3033 21.7214C16.5555 21.2757 16.8938 20.8846 17.2985 20.5709C17.7008 20.2591 18.1607 20.0299 18.6518 19.8965L22.1383 18.9003C22.6124 18.7649 23.0294 18.4788 23.3264 18.0852C23.6233 17.6917 23.7839 17.212 23.7841 16.7191V8.31096L10.1702 12.2006V26.9299C10.17 27.916 9.84869 28.8751 9.2548 29.6622C8.66092 30.4493 7.82678 31.0216 6.87867 31.2924L4.88198 31.8627L4.86518 31.8674C3.88604 32.1308 2.84255 31.9986 1.96005 31.4993C1.07755 30.9999 0.426843 30.1735 0.148432 29.1985C-0.129979 28.2235 -0.0137539 27.1782 0.472012 26.2881C0.957777 25.3981 1.77411 24.7348 2.74473 24.4415L2.76123 24.4366L6.25551 23.4383C6.72956 23.3029 7.14661 23.0167 7.44355 22.6232C7.74045 22.2297 7.90112 21.75 7.90127 21.257V11.37C7.90088 11.3528 7.90088 11.3357 7.90127 11.3187V5.67244C7.90127 5.16592 8.23705 4.72076 8.72409 4.58161L24.6069 0.0436604C24.9492 -0.054138 25.3176 0.0144042 25.6018 0.228781ZM10.1702 9.84086L23.7841 5.95119V2.63852L10.1702 6.52819V9.84086ZM7.90127 25.1865C7.58142 25.3712 7.2383 25.5173 6.87878 25.62L3.39388 26.6157C2.99669 26.7377 2.66282 27.0102 2.46366 27.3751C2.26331 27.7422 2.21537 28.1734 2.3302 28.5755C2.44503 28.9777 2.71342 29.3185 3.07741 29.5245C3.43921 29.7292 3.86661 29.7843 4.26834 29.6783L6.25551 29.1107C6.72956 28.9753 7.14661 28.6892 7.44355 28.2956C7.74045 27.9021 7.90112 27.4224 7.90127 26.9295V25.1865ZM23.7841 20.6486C23.4642 20.8333 23.1211 20.9793 22.7616 21.082L19.2674 22.0804L19.2505 22.0851C19.0465 22.1399 18.8555 22.2348 18.6885 22.3642C18.5216 22.4936 18.3821 22.6549 18.278 22.8388C18.174 23.0226 18.1076 23.2253 18.0827 23.4351C18.0577 23.6448 18.0747 23.8574 18.1327 24.0605C18.1907 24.2636 18.2885 24.4532 18.4205 24.6181C18.5524 24.7831 18.7159 24.9201 18.9013 25.0213C19.0867 25.1225 19.2903 25.1858 19.5004 25.2075C19.7106 25.2293 19.9229 25.209 20.1251 25.1479L20.1417 25.143L22.1384 24.5728C22.6124 24.4373 23.0294 24.1512 23.3264 23.7577C23.6233 23.3642 23.7839 22.8845 23.7841 22.3915V20.6486Z" fill="white"/>
<path fill-rule="evenodd" clip-rule="evenodd" d="M47.5889 6.0506H41.1798V22.8829H47.5889C53.0644 22.8829 55.9409 19.8771 55.9409 14.4667C55.9409 9.05636 53.0644 6.0506 47.5889 6.0506ZM47.2609 20.1176H44.4853V8.8159H47.2609C51.071 8.8159 52.5597 10.4991 52.5597 14.4667C52.5597 18.4344 51.071 20.1176 47.2609 20.1176Z" fill="white"/>
<path fill-rule="evenodd" clip-rule="evenodd" d="M70.2413 16.6072C70.2413 16.9198 70.216 17.1843 70.1656 17.4247H60.7033C60.9052 19.8053 62.1416 20.8633 64.3368 20.8633C65.876 20.8633 66.7592 20.2622 67.1881 19.0118H70.0647C69.3834 21.7771 67.1629 23.1958 64.135 23.1958C60.5772 23.1958 57.6502 21.1759 57.6502 16.6793C57.6502 12.1586 60.5267 10.1388 64.0845 10.1388C67.7433 10.1388 70.2413 12.2067 70.2413 16.6072ZM60.7033 15.7175H67.1881C67.1124 13.7216 66.0779 12.4953 64.034 12.4953C62.0911 12.4953 60.9052 13.6014 60.7033 15.7175Z" fill="white"/>
<path d="M75.3765 22.8827L70.5318 10.3787H73.812L77.3446 19.9491H77.4708L81.0033 10.3787H84.3088L79.4389 22.8827H75.3765Z" fill="white"/>
<path fill-rule="evenodd" clip-rule="evenodd" d="M97.1988 16.6072C97.1988 16.9198 97.1736 17.1843 97.1232 17.4247H87.6609C87.8628 19.8053 89.0992 20.8633 91.2944 20.8633C92.8336 20.8633 93.7167 20.2622 94.1457 19.0118H97.0222C96.3409 21.7771 94.1205 23.1958 91.0925 23.1958C87.5347 23.1958 84.6077 21.1759 84.6077 16.6793C84.6077 12.1586 87.4843 10.1388 91.0421 10.1388C94.7008 10.1388 97.1988 12.2067 97.1988 16.6072ZM87.6609 15.7175H94.1457C94.07 13.7216 93.0355 12.4953 90.9916 12.4953C89.0487 12.4953 87.8628 13.6014 87.6609 15.7175Z" fill="white"/>
<path d="M99.2593 22.8829V6.0506H102.489V22.8829H99.2593Z" fill="white"/>
<path fill-rule="evenodd" clip-rule="evenodd" d="M111.077 23.1237C107.62 23.1237 104.567 20.9836 104.567 16.6312C104.567 12.2789 107.62 10.1388 111.077 10.1388C114.509 10.1388 117.587 12.2789 117.587 16.6312C117.587 20.9836 114.509 23.1237 111.077 23.1237ZM111.077 20.5507C113.096 20.5507 114.534 19.2282 114.534 16.6312C114.534 14.0342 113.096 12.7117 111.077 12.7117C109.033 12.7117 107.595 14.0342 107.595 16.6312C107.595 19.2282 109.033 20.5507 111.077 20.5507Z" fill="white"/>
<path fill-rule="evenodd" clip-rule="evenodd" d="M126.955 10.1388C129.932 10.1388 132.733 12.2308 132.733 16.6312C132.733 21.0317 129.932 23.1237 126.955 23.1237C125.063 23.1237 123.523 22.3061 122.893 21.0797V27.452H119.662V10.3792H122.893V12.1827C123.523 10.9563 125.063 10.1388 126.955 10.1388ZM126.198 20.5507C128.141 20.5507 129.705 19.1561 129.705 16.6312C129.705 14.1064 128.141 12.7117 126.198 12.7117C124.28 12.7117 122.741 14.1064 122.741 16.6312C122.741 19.1561 124.28 20.5507 126.198 20.5507Z" fill="white"/>
<path fill-rule="evenodd" clip-rule="evenodd" d="M146.9 16.6072C146.9 16.9198 146.875 17.1843 146.824 17.4247H137.362C137.564 19.8053 138.8 20.8633 140.995 20.8633C142.535 20.8633 143.418 20.2622 143.847 19.0118H146.723C146.042 21.7771 143.822 23.1958 140.794 23.1958C137.236 23.1958 134.309 21.1759 134.309 16.6793C134.309 12.1586 137.185 10.1388 140.743 10.1388C144.402 10.1388 146.9 12.2067 146.9 16.6072ZM137.362 15.7175H143.847C143.771 13.7216 142.737 12.4953 140.693 12.4953C138.75 12.4953 137.564 13.6014 137.362 15.7175Z" fill="white"/>
<path d="M156.152 10.2826C156.531 10.2826 156.859 10.3307 157.162 10.4028V12.9998C156.783 12.9517 156.43 12.9277 156.152 12.9277C153.831 12.9277 152.191 14.2742 152.191 17.0636V22.8828H148.961V10.3788H152.191V13.3605H152.267C152.746 11.533 154.058 10.2826 156.152 10.2826Z" fill="white"/>
</svg>
