<svg width="24" height="24" viewBox="0 0 24 24" fill="none" xmlns="http://www.w3.org/2000/svg">
<path fill-rule="evenodd" clip-rule="evenodd" d="M4.87127 7.62144C6.05475 7.62144 6.81154 6.81708 6.81154 5.82316C6.78885 4.78093 6.05474 4 4.89394 4C3.73388 4 2.97711 4.78093 3.00053 5.82316C2.97711 6.81708 3.73389 7.62144 4.87127 7.62144ZM3.09568 9.04205V20.6185H6.6937V9.04205H3.09568ZM9.48193 9.04302C9.52951 10.0611 9.57708 11.2922 9.57708 12.7362H9.57854V20.6202H13.1766V13.9438C13.1766 13.6115 13.2234 13.2807 13.3186 13.0436C13.555 12.3812 14.1463 11.6947 15.141 11.6947C16.443 11.6947 16.9634 12.712 16.9634 14.2044V20.6202H20.5615V13.7535C20.5615 10.3458 18.7859 8.7832 16.4189 8.7832C14.5013 8.7832 13.3178 9.89496 12.8443 10.6291H12.7733L12.6071 9.04302H9.48193Z" fill="white" fill-opacity="0.4"/>
</svg>
