<svg width="23" height="24" viewBox="0 0 23 24" fill="none" xmlns="http://www.w3.org/2000/svg">
<path d="M4.86102 16.7829L5.39135 17.3132L4.86102 16.7829ZM1.1706 19.4126C0.877704 19.7055 0.877704 20.1804 1.1706 20.4733C1.46349 20.7662 1.93836 20.7662 2.23126 20.4733L1.1706 19.4126ZM5.87212 22.2514C5.45791 22.2514 5.12212 22.5872 5.12212 23.0014C5.12212 23.4157 5.45791 23.7514 5.87212 23.7514V22.2514ZM14.4142 22.6269L13.8838 22.0965L13.8838 22.0965L14.4142 22.6269ZM20.8127 16.2285L21.3431 16.7588L20.8127 16.2285ZM18.1871 13.6028L17.6568 13.0725L18.1871 13.6028ZM15.1777 15.5516C14.8848 15.8445 14.8848 16.3194 15.1777 16.6123C15.4705 16.9052 15.9454 16.9052 16.2383 16.6123L15.1777 15.5516ZM10.4999 17.8078C10.0857 17.8078 9.74994 18.1436 9.74994 18.5578C9.74994 18.972 10.0857 19.3078 10.4999 19.3078V17.8078ZM20.8128 13.6028L21.3431 13.0725L20.8128 13.6028ZM8.19395 12.1883L8.00233 11.4632H8.00233L8.19395 12.1883ZM8.53442 12.0983L8.72604 12.8234L8.53442 12.0983ZM10.482 2.62081L10.2878 1.89637V1.89637L10.482 2.62081ZM15.2711 1.33737L15.0769 0.612933V0.612933L15.2711 1.33737ZM15.3232 10.2789L15.1317 9.55379L15.1317 9.55379L15.3232 10.2789ZM14.9809 10.3694L15.1725 11.0945L15.1725 11.0945L14.9809 10.3694ZM14.286 7.76436L14.481 8.48856L14.286 7.76436ZM7.50448 9.5793L7.6961 10.3044H7.6961L7.50448 9.5793ZM14.0267 14.8613H7.68945V16.3613H14.0267V14.8613ZM4.33069 16.2525L1.1706 19.4126L2.23126 20.4733L5.39135 17.3132L4.33069 16.2525ZM13.5106 23.7514C14.0291 23.7514 14.549 23.5527 14.9445 23.1572L13.8838 22.0965C13.7802 22.2001 13.6465 22.2514 13.5106 22.2514V23.7514ZM14.9445 23.1572L21.3431 16.7588L20.2824 15.6981L13.8838 22.0965L14.9445 23.1572ZM17.6568 13.0725L15.1777 15.5516L16.2383 16.6123L18.7175 14.1332L17.6568 13.0725ZM14.0267 17.8078H10.4999V19.3078H14.0267V17.8078ZM21.3431 13.0725C20.3251 12.0546 18.6747 12.0546 17.6568 13.0725L18.7175 14.1332C19.1496 13.701 19.8503 13.701 20.2824 14.1332L21.3431 13.0725ZM21.3431 16.7588C22.361 15.7409 22.361 14.0904 21.3431 13.0725L20.2824 14.1332C20.7146 14.5653 20.7146 15.266 20.2824 15.6981L21.3431 16.7588ZM7.68945 14.8613C6.42967 14.8613 5.22149 15.3617 4.33069 16.2525L5.39135 17.3132C6.00084 16.7037 6.82749 16.3613 7.68945 16.3613V14.8613ZM14.7499 17.0845C14.7499 17.484 14.4261 17.8078 14.0267 17.8078V19.3078C15.2546 19.3078 16.2499 18.3124 16.2499 17.0845H14.7499ZM14.0267 16.3613C14.4261 16.3613 14.7499 16.6851 14.7499 17.0845H16.2499C16.2499 15.8567 15.2546 14.8613 14.0267 14.8613V16.3613ZM8.38558 12.9134L8.72604 12.8234L8.34279 11.3732L8.00233 11.4632L8.38558 12.9134ZM10.4908 10.5316V8.9883H8.99085V10.5316H10.4908ZM10.4908 8.9883V3.58672H8.99085V8.9883H10.4908ZM10.6761 3.34524L15.4652 2.06181L15.0769 0.612933L10.2878 1.89637L10.6761 3.34524ZM15.7799 2.30328V7.16005H17.2799V2.30328H15.7799ZM15.7799 7.16005V8.71197H17.2799V7.16005H15.7799ZM15.1317 9.55379L14.7893 9.64425L15.1725 11.0945L15.5148 11.004L15.1317 9.55379ZM14.481 8.48856L16.725 7.88425L16.3349 6.43585L14.091 7.04016L14.481 8.48856ZM9.54922 8.26319L7.31285 8.8542L7.6961 10.3044L9.93247 9.7134L9.54922 8.26319ZM14.0385 9.06604C14.0385 8.79564 14.2199 8.55887 14.481 8.48856L14.091 7.04016C13.175 7.28684 12.5385 8.11743 12.5385 9.06604H14.0385ZM14.7893 9.64425C14.41 9.74448 14.0385 9.45841 14.0385 9.06604H12.5385C12.5385 10.4425 13.8417 11.4461 15.1725 11.0945L14.7893 9.64425ZM15.7799 8.71197C15.7799 9.10718 15.5138 9.45283 15.1317 9.55379L15.5148 11.004C16.5552 10.7291 17.2799 9.78803 17.2799 8.71197H15.7799ZM15.4652 2.06181C15.624 2.01925 15.7799 2.1389 15.7799 2.30328H17.2799C17.2799 1.15258 16.1884 0.315066 15.0769 0.612933L15.4652 2.06181ZM10.4908 3.58672C10.4908 3.47357 10.5668 3.37453 10.6761 3.34524L10.2878 1.89637C9.52281 2.10139 8.99085 2.79469 8.99085 3.58672H10.4908ZM8.72604 12.8234C9.76624 12.5485 10.4908 11.6076 10.4908 10.5316H8.99085C8.99085 10.9267 8.72476 11.2723 8.34279 11.3732L8.72604 12.8234ZM5.74994 10.8838C5.74994 12.2611 7.05395 13.2653 8.38558 12.9134L8.00233 11.4632C7.62219 11.5636 7.24994 11.277 7.24994 10.8838H5.74994ZM7.24994 10.8838C7.24994 10.6118 7.43313 10.3739 7.6961 10.3044L7.31285 8.8542C6.39165 9.09764 5.74994 9.93097 5.74994 10.8838H7.24994ZM5.87212 23.7514H13.5106V22.2514H5.87212V23.7514Z" fill="#75A5FF"/>
</svg>
