<svg width="22" height="24" viewBox="0 0 22 24" fill="none" xmlns="http://www.w3.org/2000/svg">
<path d="M6.25 2.25H5.5C5.5 2.66421 5.83579 3 6.25 3V2.25ZM10.75 2.25V3C11.1642 3 11.5 2.66421 11.5 2.25H10.75ZM14.75 7C14.75 7.41421 15.0858 7.75 15.5 7.75C15.9142 7.75 16.25 7.41421 16.25 7H14.75ZM16.25 15C16.25 14.5858 15.9142 14.25 15.5 14.25C15.0858 14.25 14.75 14.5858 14.75 15H16.25ZM17 3.48817C16.5858 3.48817 16.25 3.82396 16.25 4.23817C16.25 4.65238 16.5858 4.98817 17 4.98817V3.48817ZM18.7499 2.5L19.4999 2.49021C19.4945 2.07985 19.1603 1.75 18.7499 1.75C18.3395 1.75 18.0053 2.07985 18 2.49021L18.7499 2.5ZM17.9999 6C17.9999 6.41421 18.3357 6.75 18.7499 6.75C19.1641 6.75 19.4999 6.41421 19.4999 6H17.9999ZM20.5 4.98821C20.9142 4.98821 21.25 4.65242 21.25 4.23821C21.25 3.824 20.9142 3.48821 20.5 3.48821V4.98821ZM16.5 10.9884L16.5003 11.7384C16.9144 11.7382 17.25 11.4025 17.25 10.9884C17.25 10.5743 16.9144 10.2385 16.5003 10.2384L16.5 10.9884ZM11.9958 6.5L12.7458 6.49535C12.7433 6.08296 12.4082 5.75 11.9958 5.75C11.5834 5.75 11.2484 6.08296 11.2459 6.49535L11.9958 6.5ZM11.9958 15.5037L11.2458 15.504C11.2459 15.9181 11.5816 16.2537 11.9958 16.2537C12.4099 16.2537 12.7456 15.9181 12.7458 15.504L11.9958 15.5037ZM7.5 10.9884L7.49834 10.2384C7.08478 10.2393 6.75 10.5748 6.75 10.9884C6.75 11.402 7.08478 11.7375 7.49834 11.7384L7.5 10.9884ZM13.5 22.25H3.5V23.75H13.5V22.25ZM2.25 21V3H0.75V21H2.25ZM3.5 22.25C2.80964 22.25 2.25 21.6904 2.25 21H0.75C0.75 22.5188 1.98122 23.75 3.5 23.75V22.25ZM14.75 21C14.75 21.6904 14.1904 22.25 13.5 22.25V23.75C15.0188 23.75 16.25 22.5188 16.25 21H14.75ZM13.5 1.75C14.1904 1.75 14.75 2.30964 14.75 3H16.25C16.25 1.48122 15.0188 0.25 13.5 0.25V1.75ZM3.5 0.25C1.98122 0.25 0.75 1.48122 0.75 3H2.25C2.25 2.30964 2.80964 1.75 3.5 1.75V0.25ZM6.25 3H10.75V1.5H6.25V3ZM10.75 1.75H13.5V0.25H10.75V1.75ZM11.5 2.25V1H10V2.25H11.5ZM3.5 1.75H6.25V0.25H3.5V1.75ZM6.25 1.75H10.75V0.25H6.25V1.75ZM7 2.25V1H5.5V2.25H7ZM14.75 3V7H16.25V3H14.75ZM16.25 21V15H14.75V21H16.25ZM17 4.98817C18.3743 4.98817 19.482 3.87709 19.4999 2.50979L18 2.49021C17.9927 3.04715 17.5432 3.48817 17 3.48817V4.98817ZM17 4.98817C17.5475 4.98817 17.9999 5.43637 17.9999 6H19.4999C19.4999 4.61761 18.3856 3.48817 17 3.48817V4.98817ZM20.5 3.48821C19.1145 3.48821 17.9999 4.6175 17.9999 6H19.4999C19.4999 5.43648 19.9524 4.98821 20.5 4.98821V3.48821ZM18 2.50979C18.0178 3.87716 19.1258 4.98821 20.5 4.98821V3.48821C19.9568 3.48821 19.5071 3.04709 19.4999 2.49021L18 2.50979ZM16.5003 10.2384C14.4363 10.2376 12.7587 8.56599 12.7458 6.49535L11.2459 6.50465C11.2638 9.39591 13.6072 11.7373 16.4997 11.7384L16.5003 10.2384ZM12.7458 15.504C12.7465 13.4229 14.4288 11.7391 16.5003 11.7384L16.4997 10.2384C13.5968 10.2394 11.2468 12.5979 11.2458 15.5035L12.7458 15.504ZM7.49834 11.7384C9.56655 11.743 11.245 13.4253 11.2458 15.504L12.7458 15.5035C12.7447 12.6011 10.4001 10.2448 7.50166 10.2384L7.49834 11.7384ZM11.2459 6.49535C11.233 8.56358 9.55909 10.2338 7.49834 10.2384L7.50166 11.7384C10.3896 11.732 12.7279 9.39265 12.7458 6.50465L11.2459 6.49535Z" fill="#75A5FF"/>
</svg>
