<svg width="24" height="24" viewBox="0 0 24 24" fill="none" xmlns="http://www.w3.org/2000/svg">
<path d="M6.65643 12.7449L5.9648 12.4548C5.847 12.7356 5.91074 13.0598 6.1261 13.2752L6.65643 12.7449ZM7.68241 10.2987L6.99078 10.0086L7.68241 10.2987ZM20.7489 1.7145L20.7406 2.46445L20.7489 1.7145ZM22.5158 1.7342L23.2658 1.72584C23.2612 1.31817 22.9319 0.988797 22.5242 0.984251L22.5158 1.7342ZM22.5355 3.50109L21.7856 3.50945V3.50945L22.5355 3.50109ZM13.9513 16.5676L14.2414 17.2592L13.9513 16.5676ZM11.5052 17.5936L10.9748 18.1239C11.1902 18.3393 11.5144 18.403 11.7952 18.2852L11.5052 17.5936ZM10.5128 5.15485L10.3895 5.89464L10.5128 5.15485ZM4.13105 7.39106L3.60072 6.86073C3.46007 7.00138 3.38105 7.19215 3.38105 7.39106C3.38105 7.58997 3.46007 7.78074 3.60072 7.92139L4.13105 7.39106ZM19.0952 13.7372L18.3554 13.8605V13.8605L19.0952 13.7372ZM16.859 20.119L16.3286 20.6493C16.6215 20.9422 17.0964 20.9422 17.3893 20.6493L16.859 20.119ZM6.84336 18.4673C7.13625 18.1744 7.13625 17.6996 6.84336 17.4067C6.55047 17.1138 6.07559 17.1138 5.7827 17.4067L6.84336 18.4673ZM1.95427 21.2351C1.66138 21.528 1.66138 22.0029 1.95427 22.2958C2.24717 22.5887 2.72204 22.5887 3.01493 22.2958L1.95427 21.2351ZM3.72204 15.346C4.01493 15.0531 4.01493 14.5782 3.72204 14.2854C3.42914 13.9925 2.95427 13.9925 2.66138 14.2854L3.72204 15.346ZM0.832951 16.1138C0.540058 16.4067 0.540058 16.8815 0.832951 17.1744C1.12584 17.4673 1.60072 17.4673 1.89361 17.1744L0.832951 16.1138ZM9.96468 21.5887C10.2576 21.2958 10.2576 20.8209 9.96468 20.528C9.67179 20.2351 9.19691 20.2351 8.90402 20.528L9.96468 21.5887ZM7.07559 22.3564C6.7827 22.6493 6.7827 23.1242 7.07559 23.4171C7.36848 23.71 7.84336 23.71 8.13625 23.4171L7.07559 22.3564ZM7.34806 13.035L8.37404 10.5888L6.99078 10.0086L5.9648 12.4548L7.34806 13.035ZM20.7406 2.46445L22.5075 2.48416L22.5242 0.984251L20.7573 0.964546L20.7406 2.46445ZM21.7659 1.74257L21.7856 3.50945L23.2855 3.49272L23.2658 1.72584L21.7659 1.74257ZM13.6612 15.876L11.2151 16.902L11.7952 18.2852L14.2414 17.2592L13.6612 15.876ZM12.0355 17.0633L7.18676 12.2145L6.1261 13.2752L10.9748 18.1239L12.0355 17.0633ZM21.7856 3.50945C21.8457 8.90063 18.6332 13.7907 13.6612 15.876L14.2414 17.2592C19.7762 14.9378 23.3524 9.49423 23.2855 3.49272L21.7856 3.50945ZM8.37404 10.5888C10.4594 5.61687 15.3494 2.40433 20.7406 2.46445L20.7573 0.964546C14.7558 0.897615 9.3122 4.47385 6.99078 10.0086L8.37404 10.5888ZM11.3254 4.52994L10.6361 4.41505L10.3895 5.89464L11.0788 6.00953L11.3254 4.52994ZM3.88192 6.57953L3.60072 6.86073L4.66138 7.92139L4.94258 7.64019L3.88192 6.57953ZM3.60072 7.92139L7.13625 11.4569L8.19691 10.3963L4.66138 6.86073L3.60072 7.92139ZM10.6361 4.41505C8.16727 4.00358 5.65171 4.80973 3.88192 6.57953L4.94258 7.64019C6.36983 6.21293 8.39851 5.56281 10.3895 5.89464L10.6361 4.41505ZM18.2405 13.1712L18.3554 13.8605L19.835 13.6139L19.7201 12.9246L18.2405 13.1712ZM16.6098 19.3075L16.3286 19.5886L17.3893 20.6493L17.6705 20.3681L16.6098 19.3075ZM17.3893 19.5886L13.8538 16.0531L12.7931 17.1138L16.3286 20.6493L17.3893 19.5886ZM18.3554 13.8605C18.6872 15.8515 18.0371 17.8802 16.6098 19.3075L17.6705 20.3681C19.4403 18.5983 20.2464 16.0828 19.835 13.6139L18.3554 13.8605ZM12.9144 3.67875L20.5713 11.3356L21.6319 10.2749L13.9751 2.61809L12.9144 3.67875ZM5.7827 17.4067L1.95427 21.2351L3.01493 22.2958L6.84336 18.4673L5.7827 17.4067ZM2.66138 14.2854L0.832951 16.1138L1.89361 17.1744L3.72204 15.346L2.66138 14.2854ZM8.90402 20.528L7.07559 22.3564L8.13625 23.4171L9.96468 21.5887L8.90402 20.528Z" fill="#75A5FF"/>
</svg>
