<svg width="24" height="24" viewBox="0 0 24 24" fill="none" xmlns="http://www.w3.org/2000/svg">
<path d="M18.4514 10.7936L19.147 10.8164V7.53237L18.8688 7.51204C17.9404 7.44416 17.0653 7.05209 16.3967 6.40436C15.728 5.75663 15.3083 4.89448 15.211 3.96864L15.1827 3.70001H12.3214L12.2968 15.1709C12.2968 16.3559 11.2413 17.3212 10.0159 17.3212C9.4374 17.3212 8.88262 17.0914 8.47357 16.6824C8.06453 16.2733 7.83473 15.7186 7.83473 15.1401C7.83473 14.5616 8.06453 14.0068 8.47357 13.5978C8.88262 13.1887 9.4374 12.9589 10.0159 12.9589C10.0705 12.9589 10.1167 12.9653 10.1816 12.9741L10.1817 12.9741L10.1822 12.9742C10.2106 12.9781 10.2427 12.9825 10.2806 12.987L10.6163 13.0273V10.0118L10.3351 9.99412L10.2731 9.98991L10.2731 9.98991C10.1955 9.98448 10.1048 9.97813 10.0159 9.97813C8.99505 9.97813 7.99715 10.2808 7.14837 10.848C6.29958 11.4151 5.63803 12.2212 5.24738 13.1643C4.85673 14.1075 4.75452 15.1452 4.95367 16.1464C5.15282 17.1477 5.6444 18.0673 6.36623 18.7892C7.08806 19.511 8.00773 20.0026 9.00894 20.2017C10.0101 20.4009 11.0479 20.2987 11.9911 19.908C12.9342 19.5174 13.7403 18.8558 14.3074 18.007C14.8745 17.1582 15.1773 16.1603 15.1773 15.1395V9.41314C15.4987 9.74288 15.8692 10.0234 16.2773 10.2439C16.9451 10.6048 17.6923 10.7937 18.4514 10.7936Z" fill="white" fill-opacity="0.4"/>
</svg>
