<svg width="24" height="24" viewBox="0 0 24 24" fill="none" xmlns="http://www.w3.org/2000/svg">
<path fill-rule="evenodd" clip-rule="evenodd" d="M20.9631 6.07539C21.2745 6.38683 21.4989 6.77442 21.614 7.19958C22.2764 9.86609 22.1234 14.0775 21.6269 16.8469C21.5118 17.272 21.2874 17.6596 20.976 17.9711C20.6645 18.2825 20.2769 18.5069 19.8518 18.622C18.2953 19.0464 12.031 19.0464 12.031 19.0464C12.031 19.0464 5.76672 19.0464 4.21029 18.622C3.78514 18.5069 3.39754 18.2825 3.08609 17.9711C2.77465 17.6596 2.55024 17.272 2.43519 16.8469C1.76888 14.1919 1.95154 9.978 2.42233 7.21245C2.53737 6.78729 2.76179 6.39969 3.07323 6.08825C3.38467 5.77681 3.77227 5.55239 4.19743 5.43735C5.75386 5.01286 12.0182 5 12.0182 5C12.0182 5 18.2825 5 19.8389 5.42448C20.264 5.53953 20.6516 5.76395 20.9631 6.07539ZM15.2211 12.0232L10.0244 15.0332V9.01326L15.2211 12.0232Z" fill="white" fill-opacity="0.4"/>
</svg>
